<?xml version="1.0" standalone="no"?>
<!DOCTYPE svg PUBLIC "-//W3C//DTD SVG 20010904//EN"
 "http://www.w3.org/TR/2001/REC-SVG-20010904/DTD/svg10.dtd">
<svg version="1.0" xmlns="http://www.w3.org/2000/svg"
 width="271.000000pt" height="271.000000pt" viewBox="0 0 271.000000 271.000000"
 preserveAspectRatio="xMidYMid meet">
<metadata>
Created by potrace 1.14, written by Peter Selinger 2001-2017
</metadata>
<g transform="translate(0.000000,271.000000) scale(0.100000,-0.100000)"
fill="#000000" stroke="none">
<path d="M1072 1854 c0 -207 -4 -350 -10 -356 -5 -5 -18 -11 -28 -12 -39 -6
-43 26 -44 302 l0 262 -28 0 c-15 0 -33 -5 -40 -12 -7 -7 -12 -9 -12 -4 0 4
-13 -2 -29 -13 -16 -12 -32 -21 -36 -21 -13 0 -108 -68 -150 -107 -13 -13 -27
-23 -31 -23 -4 0 -27 -21 -52 -47 -25 -25 -39 -43 -31 -38 8 4 -1 -6 -20 -24
-19 -17 -31 -31 -26 -31 5 0 1 -6 -9 -13 -17 -13 -41 -48 -52 -79 -3 -10 -10
-18 -15 -18 -5 0 -9 -5 -9 -11 0 -6 -9 -23 -19 -37 -10 -15 -20 -31 -21 -37
-4 -16 -10 -34 -17 -52 -3 -10 -7 -20 -7 -23 -1 -3 -4 -9 -7 -15 -6 -10 -20
-57 -25 -85 -2 -8 -8 -35 -13 -60 -11 -53 -21 -153 -22 -227 -1 -47 -4 -53
-32 -67 -17 -8 -35 -12 -39 -10 -4 3 -8 1 -8 -3 0 -5 -8 -9 -17 -9 -30 -2 -70
-12 -92 -24 -12 -6 -21 -7 -21 -3 0 4 -5 2 -11 -4 -15 -15 -24 -80 -20 -154 1
-29 32 -67 76 -95 17 -10 35 -23 40 -27 21 -17 81 -51 94 -53 8 -2 17 -7 20
-12 7 -10 51 -27 64 -24 4 1 7 -3 7 -10 0 -6 3 -8 7 -5 3 4 12 2 20 -4 7 -6
13 -9 13 -5 0 4 12 0 27 -8 16 -7 73 -26 128 -41 55 -15 107 -30 115 -33 8 -3
26 -6 40 -8 14 -1 25 -3 25 -4 0 -2 14 -4 30 -5 17 -1 37 -5 45 -8 40 -15 242
-35 420 -42 269 -11 362 -8 620 19 33 3 133 20 190 32 14 3 35 6 48 6 12 1 22
6 22 10 0 4 14 8 30 8 17 0 30 5 30 11 0 5 4 8 8 5 8 -5 67 13 90 27 6 5 16 6
21 2 5 -3 12 -1 16 5 3 5 15 10 26 10 10 0 19 5 19 10 0 6 3 9 8 8 12 -4 92
34 92 44 0 4 6 8 14 8 8 0 21 7 30 15 8 9 18 15 21 15 8 -1 29 18 87 74 l49
48 -2 84 c-3 64 -7 85 -19 89 -8 4 -17 6 -19 5 -2 -1 -7 2 -10 7 -3 5 -41 17
-84 28 -43 10 -85 24 -93 30 -11 8 -16 35 -18 100 -2 50 -7 110 -11 135 -4 25
-8 57 -9 71 -1 14 -7 39 -13 55 -6 16 -15 38 -19 49 -4 11 -8 23 -9 28 -2 4
-4 9 -5 12 -1 3 -3 8 -4 13 -5 22 -52 112 -59 112 -5 0 -6 4 -3 8 3 5 -4 19
-15 30 -10 12 -19 25 -19 29 0 5 -7 16 -15 26 -8 9 -12 17 -8 17 3 0 -4 9 -17
20 -13 11 -20 20 -17 20 4 0 -9 16 -28 35 -19 19 -35 40 -35 46 0 7 -2 10 -5
7 -3 -3 -29 17 -57 43 -29 27 -55 49 -59 49 -4 0 -21 13 -39 30 -18 16 -36 27
-41 24 -5 -3 -9 -1 -9 4 0 14 -117 72 -145 72 -14 0 -25 -6 -26 -12 0 -7 -2
-128 -3 -268 -2 -140 -4 -257 -6 -260 -1 -3 -2 -8 -1 -12 0 -5 -5 -8 -13 -8
-8 0 -17 -6 -19 -12 -4 -10 -6 -10 -6 0 -1 6 -8 12 -18 12 -9 0 -13 3 -10 7 4
3 2 11 -3 18 -6 7 -10 144 -11 348 l0 337 -298 0 -299 0 0 -346z m-237 -834
c50 -12 99 -25 110 -30 11 -5 27 -9 35 -9 8 0 35 -5 60 -11 25 -6 79 -13 120
-15 41 -3 75 -5 75 -5 0 -1 64 -2 143 -3 78 -1 142 0 142 3 0 3 23 5 52 4 54
-1 123 11 268 47 46 12 91 23 100 24 8 2 16 4 18 5 2 3 6 4 56 14 31 6 42 4
56 -12 16 -17 17 -22 4 -40 -8 -12 -32 -23 -56 -28 -49 -9 -57 -11 -60 -14 -4
-2 -35 -9 -68 -14 -14 -2 -36 -8 -50 -14 -14 -5 -28 -8 -32 -5 -5 2 -8 -1 -8
-7 0 -6 -4 -9 -8 -6 -5 3 -32 -1 -60 -9 -29 -7 -52 -11 -52 -9 0 3 -5 2 -12
-2 -16 -10 -119 -16 -293 -17 -159 -1 -276 9 -370 30 -42 10 -44 10 -50 13 -3
1 -13 3 -22 5 -10 1 -25 5 -33 8 -12 6 -140 37 -209 51 -23 5 -32 43 -14 61
17 18 28 17 158 -15z"/>
</g>
</svg>
