<?xml version="1.0" standalone="no"?>
<!DOCTYPE svg PUBLIC "-//W3C//DTD SVG 20010904//EN"
 "http://www.w3.org/TR/2001/REC-SVG-20010904/DTD/svg10.dtd">
<svg version="1.0" xmlns="http://www.w3.org/2000/svg"
 width="1681.000000pt" height="1681.000000pt" viewBox="0 0 1681.000000 1681.000000"
 preserveAspectRatio="xMidYMid meet">
<metadata>
Created by potrace 1.11, written by Peter Selinger 2001-2013
</metadata>
<g transform="translate(0.000000,1681.000000) scale(0.100000,-0.100000)"
fill="#000000" stroke="none">
<path d="M2595 11239 c4 -5 -4 -8 -17 -8 -22 2 -87 -6 -158 -17 -68 -11 -95
-15 -120 -18 -14 -2 -32 -5 -40 -9 -8 -3 -22 -5 -30 -5 -19 -1 -49 -7 -165
-37 -33 -9 -68 -18 -78 -20 -9 -2 -22 -7 -27 -10 -6 -4 -22 -9 -37 -11 -15 -3
-34 -11 -42 -17 -8 -7 -15 -11 -15 -9 -1 2 -9 1 -18 -2 -10 -3 -26 -9 -35 -12
-10 -3 -18 -4 -18 -3 0 1 -11 -4 -25 -11 -14 -8 -27 -15 -30 -15 -16 -4 -74
-31 -142 -65 -42 -21 -79 -36 -82 -33 -3 4 -6 2 -6 -3 0 -5 -17 -18 -37 -29
-21 -11 -41 -24 -44 -28 -3 -5 -10 -9 -15 -9 -17 -1 -220 -134 -262 -171 -12
-11 -22 -17 -22 -12 0 4 -11 -3 -24 -16 -30 -31 -68 -59 -79 -59 -4 0 -6 -4
-2 -9 3 -5 -4 -12 -14 -16 -20 -6 -255 -233 -322 -310 -89 -104 -256 -335
-242 -335 4 0 0 -5 -9 -11 -10 -5 -18 -15 -18 -21 0 -6 -6 -19 -14 -27 -7 -9
-35 -56 -61 -106 -26 -49 -50 -94 -54 -100 -3 -5 -6 -12 -7 -15 0 -3 -15 -36
-32 -73 -18 -38 -32 -73 -32 -78 0 -5 -5 -9 -12 -9 -6 0 -9 -3 -5 -6 3 -4 -1
-20 -9 -36 -8 -16 -12 -33 -9 -38 3 -6 2 -10 -3 -10 -6 0 -16 -22 -23 -50 -7
-27 -17 -50 -21 -50 -5 0 -6 -5 -3 -10 4 -6 1 -17 -5 -25 -7 -8 -9 -15 -5 -15
4 0 2 -7 -5 -15 -6 -8 -9 -19 -6 -24 4 -5 2 -12 -4 -16 -5 -3 -10 -15 -10 -25
0 -10 -5 -31 -11 -47 -6 -15 -13 -46 -15 -68 -3 -21 -8 -41 -12 -45 -4 -3 -8
-16 -8 -30 -1 -14 -5 -38 -8 -55 -11 -51 -18 -99 -20 -125 -1 -14 -5 -30 -9
-37 -4 -6 -3 -15 3 -18 8 -5 7 -12 -2 -22 -17 -21 -23 -630 -7 -683 5 -19 12
-53 14 -75 3 -22 7 -51 10 -65 14 -62 18 -79 31 -147 3 -18 11 -33 16 -33 5 0
6 -5 3 -10 -6 -9 15 -97 32 -140 3 -8 8 -23 9 -32 2 -9 20 -59 39 -110 20 -51
38 -101 40 -111 6 -27 153 -321 181 -362 13 -20 24 -38 24 -41 0 -3 23 -40 52
-82 122 -181 260 -347 410 -489 130 -124 143 -130 193 -91 37 29 459 456 463
468 6 18 22 11 112 -50 49 -33 94 -60 100 -60 5 0 10 -4 10 -9 0 -5 8 -11 18
-14 22 -7 75 -39 83 -50 3 -5 8 -8 10 -6 9 5 49 -13 49 -22 0 -5 3 -8 8 -7 4
1 30 -8 57 -21 112 -51 146 -65 163 -62 6 1 12 -4 12 -10 0 -7 3 -9 7 -6 3 4
12 2 20 -4 7 -6 13 -8 13 -4 0 4 6 2 14 -4 8 -6 18 -11 22 -9 5 1 20 -4 34
-12 14 -7 26 -12 28 -11 1 2 21 -1 45 -5 23 -4 45 -7 50 -6 4 1 7 -2 7 -7 0
-6 9 -8 20 -6 11 2 22 0 25 -4 2 -5 16 -7 30 -6 14 2 25 0 25 -4 0 -4 17 -8
38 -9 20 -1 62 -4 92 -8 148 -16 440 -6 580 21 14 3 43 8 64 10 21 3 43 8 47
11 9 5 41 13 74 18 11 2 20 4 20 5 0 2 20 8 50 14 8 2 17 6 21 9 3 4 12 4 20
1 8 -3 14 -1 14 4 0 5 6 10 13 10 41 2 353 141 368 164 3 6 8 10 10 9 6 -2 43
13 49 20 7 9 100 70 107 70 3 0 14 10 24 22 11 11 19 18 19 14 0 -4 11 5 25
20 14 15 25 24 25 20 0 -7 54 40 118 102 19 17 38 32 43 32 5 0 9 4 9 9 0 5
19 29 43 53 129 129 277 341 372 531 35 70 61 127 59 127 -3 0 1 10 8 23 7 12
11 26 10 31 -2 4 1 13 6 20 5 6 19 45 31 86 12 41 25 82 28 90 3 8 7 22 8 30
2 16 16 85 22 110 2 8 6 29 8 45 2 17 7 46 9 65 19 123 25 299 15 435 -9 122
-23 240 -28 240 -4 0 -14 69 -13 93 0 12 -4 22 -9 22 -6 0 -9 6 -7 13 2 11
-25 112 -39 147 -3 8 -5 21 -4 28 1 6 -4 12 -10 12 -7 0 -10 3 -6 6 3 3 -3 26
-14 51 -10 25 -16 50 -12 55 3 7 1 8 -5 4 -7 -4 -14 4 -18 20 -9 36 -66 144
-116 222 l-41 63 -42 -45 c-23 -25 -45 -42 -49 -38 -4 4 -6 0 -4 -8 1 -8 -3
-14 -10 -12 -6 1 -11 -2 -10 -7 2 -5 -10 -22 -27 -38 -16 -16 -62 -64 -102
-105 -40 -41 -75 -73 -78 -70 -3 3 -5 -2 -5 -12 0 -9 -6 -19 -14 -22 -8 -3
-13 -18 -12 -37 2 -39 27 -107 39 -107 4 0 6 -4 3 -8 -2 -4 1 -21 8 -37 18
-41 39 -107 41 -125 0 -9 4 -21 8 -27 8 -13 33 -125 43 -198 4 -22 7 -73 8
-112 0 -40 3 -73 6 -73 3 0 5 -20 5 -45 0 -25 -2 -45 -5 -45 -3 0 -6 -28 -7
-63 -2 -78 -10 -135 -29 -212 -8 -33 -16 -69 -18 -80 -2 -11 -4 -20 -5 -20 -3
0 -12 -36 -13 -52 -1 -7 -4 -13 -8 -13 -3 0 -6 -8 -7 -18 -1 -10 -14 -45 -29
-77 -15 -33 -28 -62 -28 -65 -4 -15 -52 -106 -58 -108 -5 -2 -8 -10 -8 -18 0
-8 -9 -23 -20 -34 -11 -11 -19 -22 -17 -25 4 -8 -106 -155 -116 -155 -6 0 -8
-3 -5 -6 11 -10 -192 -206 -262 -254 -13 -8 -28 -20 -34 -25 -78 -69 -341
-198 -471 -231 -42 -10 -45 -11 -47 -14 -2 -1 -12 -4 -23 -5 -11 -1 -38 -7
-60 -13 -57 -15 -157 -25 -252 -26 -46 -1 -83 -5 -83 -9 0 -5 -5 -5 -12 -1 -7
4 -40 9 -75 10 -35 1 -69 7 -76 12 -7 5 -21 6 -32 2 -12 -4 -31 -2 -46 6 -15
7 -29 10 -33 7 -3 -3 -23 -1 -43 5 -21 6 -65 18 -98 28 -33 10 -62 17 -65 17
-3 -1 -14 4 -25 10 -11 6 -26 10 -32 9 -7 -2 -13 2 -13 8 0 5 -3 9 -7 8 -9 -1
-33 7 -83 30 -19 9 -38 15 -42 14 -5 -1 -8 2 -8 7 0 5 -9 13 -21 16 -26 8
-123 67 -127 78 -2 4 -9 7 -15 7 -7 0 -25 11 -40 25 -15 14 -27 23 -27 19 0
-4 -14 7 -30 25 -17 17 -34 31 -38 31 -4 0 -56 51 -115 113 -60 61 -125 128
-144 148 l-35 36 -42 -45 c-22 -25 -105 -111 -183 -191 -78 -80 -173 -179
-211 -219 l-70 -74 -23 25 c-37 38 -59 66 -59 76 0 5 -6 16 -13 23 -45 46
-201 321 -189 332 3 3 1 6 -5 6 -5 0 -16 18 -23 40 -7 22 -17 40 -21 40 -5 0
-6 7 -3 15 4 8 1 15 -5 15 -6 0 -10 3 -9 8 1 7 -4 23 -22 67 -4 11 -13 34 -18
50 -6 17 -14 39 -18 50 -4 11 -6 24 -5 28 0 4 -3 16 -8 25 -5 9 -12 31 -15 47
-3 17 -13 57 -21 90 -9 33 -16 67 -17 75 0 8 -4 40 -9 70 -17 104 -22 175 -22
345 0 172 4 234 23 360 18 121 21 138 37 200 8 33 17 67 18 75 2 8 4 17 6 20
1 3 3 10 4 15 1 6 5 17 8 25 3 8 11 33 18 55 31 105 170 406 190 413 5 2 9 12
9 22 0 10 7 21 16 24 8 3 12 10 9 16 -3 5 -1 10 4 10 6 0 11 4 11 10 0 14 102
160 112 160 4 0 8 6 8 13 0 12 40 63 97 125 18 19 33 39 33 43 0 5 7 9 15 9 8
0 14 4 13 9 -3 9 112 123 180 178 26 21 60 50 77 65 16 16 34 28 39 28 5 0 17
10 27 22 11 11 19 17 19 12 0 -5 7 0 16 11 8 11 16 18 17 16 2 -4 85 46 97 59
16 16 281 150 298 150 6 0 12 5 12 12 0 6 3 8 7 5 3 -4 12 -2 20 4 7 6 13 9
13 6 0 -3 19 2 43 12 71 31 82 34 95 32 6 -1 12 3 12 9 0 6 6 10 13 9 6 -1 19
1 27 4 18 7 214 55 255 62 17 2 41 7 55 10 36 8 123 16 208 19 40 2 75 6 78 9
3 3 17 2 30 -3 13 -5 24 -6 24 -2 0 4 9 8 20 8 11 0 20 -4 20 -8 0 -4 11 -3
24 2 13 5 27 6 30 2 4 -3 35 -7 69 -8 65 -2 171 -11 222 -20 17 -3 41 -6 55
-8 14 -2 32 -6 40 -9 8 -3 29 -8 47 -11 17 -2 39 -8 48 -14 10 -5 26 -7 36 -5
11 3 19 1 19 -4 0 -5 8 -10 18 -11 31 -3 47 -7 60 -15 6 -5 12 -5 12 -1 0 3 7
1 15 -6 8 -7 15 -9 15 -5 0 5 8 1 18 -8 10 -10 21 -15 24 -12 3 3 18 0 34 -6
16 -7 31 -13 34 -14 3 0 14 -6 25 -12 11 -6 22 -11 25 -11 3 0 16 -5 30 -10
14 -5 30 -10 35 -12 6 -1 17 -7 25 -14 13 -11 43 -26 60 -30 5 -2 36 -18 90
-49 72 -42 126 -67 141 -67 9 0 57 42 107 94 51 52 92 92 92 89 0 -3 10 7 23
23 28 36 57 66 57 58 0 -3 11 7 25 22 14 15 25 31 25 36 0 5 4 7 9 4 10 -7 22
30 15 49 -5 12 -87 75 -98 75 -6 0 -74 44 -93 60 -7 6 -13 8 -13 4 0 -3 -6 -2
-12 3 -27 21 -148 83 -148 76 0 -5 -4 -3 -8 2 -10 14 -72 48 -72 39 0 -4 -9 1
-20 11 -11 10 -20 15 -20 11 0 -4 -10 -1 -22 6 -13 7 -25 13 -28 13 -3 1 -18
7 -33 13 -16 7 -33 12 -38 12 -5 0 -9 4 -9 8 0 4 -12 9 -26 10 -15 1 -33 7
-40 13 -8 6 -14 8 -14 4 0 -4 -7 -2 -15 5 -8 7 -15 9 -15 5 0 -4 -6 -2 -13 4
-8 6 -17 8 -20 4 -4 -3 -7 -2 -7 3 0 5 -8 10 -17 11 -22 1 -71 12 -98 20 -11
4 -26 6 -32 5 -7 -2 -13 1 -13 5 0 5 -8 9 -17 9 -10 1 -36 4 -58 8 -85 15
-111 19 -142 20 -18 0 -33 3 -33 7 0 4 -40 9 -97 12 -7 0 -13 5 -13 10 0 5 -6
4 -14 -2 -10 -9 -16 -9 -21 -1 -4 6 -13 9 -21 6 -7 -3 -16 -1 -19 4 -3 5 -120
9 -260 9 -154 0 -253 -4 -250 -10z"/>
<path d="M4394 10334 c-139 -140 -258 -254 -263 -254 -6 0 -11 5 -11 10 0 6
-6 10 -13 10 -7 0 -23 9 -35 20 -12 11 -24 20 -27 20 -8 0 -69 44 -73 53 -2 4
-10 7 -18 7 -8 0 -14 5 -14 11 0 5 -4 8 -9 4 -5 -3 -16 2 -24 10 -9 8 -18 15
-21 15 -3 0 -27 13 -55 29 -27 16 -52 27 -55 24 -3 -4 -6 -1 -6 6 0 7 -4 9
-10 6 -5 -3 -10 -1 -10 5 0 6 -4 8 -10 5 -5 -3 -10 -1 -10 4 0 6 -3 10 -7 9
-8 -1 -42 12 -98 37 -39 18 -186 67 -202 68 -7 0 -13 3 -13 7 0 3 -10 7 -22 7
-13 1 -41 6 -62 12 -22 5 -43 8 -47 5 -4 -2 -9 0 -11 5 -1 5 -28 12 -58 14
-30 2 -62 7 -70 10 -46 17 -389 26 -505 13 -27 -3 -67 -7 -87 -8 -21 -2 -38
-6 -38 -9 0 -3 -6 -6 -12 -6 -34 -1 -113 -15 -128 -23 -10 -5 -20 -7 -23 -4
-3 3 -12 2 -19 -2 -14 -9 -31 -14 -65 -17 -13 -1 -23 -5 -23 -8 0 -4 -16 -10
-35 -13 -19 -4 -35 -10 -35 -14 0 -4 -12 -8 -28 -9 -15 -1 -45 -11 -67 -23
-21 -11 -45 -20 -52 -20 -7 0 -13 -5 -13 -12 0 -6 -3 -9 -6 -5 -4 3 -33 -7
-65 -24 -33 -16 -59 -26 -59 -22 0 5 -4 3 -8 -3 -4 -6 -32 -24 -62 -40 -30
-16 -56 -32 -58 -36 -2 -5 -7 -8 -12 -8 -5 0 -36 -19 -71 -42 -34 -24 -70 -48
-79 -53 -22 -13 -105 -82 -135 -112 -12 -13 -28 -23 -34 -23 -7 0 -9 -4 -6
-10 3 -5 1 -10 -5 -10 -6 0 -22 -12 -36 -27 -14 -16 -47 -51 -72 -79 -96 -103
-182 -214 -182 -234 0 -5 -4 -10 -8 -10 -10 0 -122 -183 -122 -199 0 -6 -5
-11 -11 -11 -5 0 -8 -4 -5 -9 4 -5 3 -11 -1 -13 -10 -4 -56 -99 -79 -163 -10
-27 -23 -53 -28 -57 -6 -4 -8 -8 -3 -8 4 0 1 -16 -7 -35 -21 -50 -59 -187 -58
-207 0 -10 -3 -18 -7 -18 -4 0 -8 -12 -9 -27 -1 -16 -4 -39 -7 -53 -3 -14 -8
-43 -11 -65 -3 -22 -9 -69 -14 -105 -9 -68 -6 -443 4 -495 4 -16 8 -43 10 -60
2 -16 7 -46 11 -65 4 -19 8 -44 10 -55 2 -11 6 -29 9 -40 3 -11 12 -47 21 -80
9 -33 19 -67 22 -75 3 -8 8 -24 10 -35 2 -10 7 -22 11 -25 4 -3 8 -12 10 -20
7 -38 62 -162 77 -172 5 -4 6 -8 2 -8 -4 0 11 -37 35 -81 45 -84 81 -117 99
-88 5 8 9 11 9 8 0 -3 30 24 68 60 37 36 67 68 66 71 -1 3 18 21 42 40 23 19
46 43 49 53 4 10 9 16 11 14 3 -3 23 13 45 35 57 57 60 87 16 192 -19 46 -33
87 -30 90 4 3 2 6 -4 6 -5 0 -10 6 -11 13 0 12 -1 15 -28 107 -8 30 -17 66
-20 80 -11 66 -13 75 -14 75 -10 0 -21 363 -11 380 3 6 6 22 7 38 1 15 2 28 4
30 1 1 3 18 5 37 2 19 11 64 20 100 8 36 18 76 21 89 3 13 9 32 15 43 5 10 7
18 3 18 -3 0 -1 7 6 15 7 8 9 15 5 15 -4 0 -2 7 5 15 6 8 9 19 5 25 -3 5 -2
10 3 10 5 0 15 18 22 40 7 22 17 40 22 40 4 0 7 4 6 8 -4 10 44 106 55 110 4
2 5 8 1 13 -3 5 0 9 5 9 6 0 11 5 11 11 0 10 84 136 100 149 3 3 16 19 28 35
24 31 172 186 172 179 0 -2 13 9 29 24 37 36 56 50 116 92 28 19 52 37 55 40
10 11 105 64 119 66 8 2 17 6 20 11 6 7 76 44 94 49 4 1 10 3 15 4 4 1 10 2
15 1 4 0 7 4 7 11 0 6 3 9 6 6 3 -4 22 1 42 9 35 14 154 48 204 57 13 3 23 5
23 6 0 3 70 10 122 13 29 1 53 5 53 8 0 4 69 4 153 2 196 -5 207 -5 207 -13 0
-3 10 -6 23 -7 41 -2 104 -10 113 -15 5 -3 32 -11 59 -18 28 -7 55 -17 61 -21
6 -5 13 -7 16 -4 3 3 30 -6 61 -20 32 -13 57 -21 57 -17 0 4 4 3 8 -3 7 -11
144 -79 151 -75 2 1 7 -3 10 -8 3 -5 26 -22 51 -37 120 -74 265 -203 404 -359
55 -63 30 -83 445 342 111 113 122 122 141 110 11 -7 20 -16 20 -20 0 -7 25
-43 85 -123 8 -10 15 -23 15 -27 0 -5 9 -18 20 -30 10 -12 17 -25 14 -30 -3
-4 0 -8 5 -8 6 0 17 -16 26 -36 8 -19 23 -48 34 -63 11 -16 18 -31 14 -35 -3
-3 0 -6 7 -6 7 0 10 -3 7 -7 -4 -3 -1 -13 7 -22 22 -26 118 -260 111 -271 -3
-5 -2 -10 4 -10 6 0 13 -16 17 -35 3 -19 10 -38 15 -41 5 -3 7 -10 3 -15 -3
-5 -1 -15 4 -22 5 -7 15 -39 22 -72 6 -33 15 -73 20 -90 5 -16 11 -50 15 -75
3 -25 8 -61 11 -80 3 -19 7 -52 8 -73 2 -21 6 -40 9 -44 4 -3 2 -14 -4 -24 -5
-11 -6 -19 -2 -19 11 0 10 -261 0 -277 -4 -6 -3 -14 3 -18 6 -4 7 -12 3 -18
-4 -7 -9 -28 -10 -47 -3 -49 -11 -125 -14 -127 -3 -5 -5 -17 -13 -81 -4 -34
-12 -64 -17 -67 -4 -3 -6 -12 -3 -20 3 -8 2 -20 -2 -27 -4 -7 -9 -19 -10 -28
-2 -13 -8 -39 -18 -75 -1 -5 -9 -30 -16 -55 -8 -25 -14 -47 -15 -50 -12 -44
-30 -90 -35 -90 -4 0 -7 -7 -7 -15 0 -20 -55 -149 -67 -157 -6 -4 -8 -8 -3 -8
7 0 -63 -136 -95 -182 -10 -14 -18 -31 -18 -37 0 -6 -5 -11 -11 -11 -5 0 -8
-4 -4 -9 3 -5 1 -12 -5 -16 -6 -3 -29 -34 -52 -68 -50 -74 -63 -88 -73 -79 -5
4 -5 2 -2 -5 4 -6 2 -17 -5 -25 -7 -7 -47 -52 -88 -98 -41 -47 -79 -87 -83
-89 -4 -1 -13 -10 -20 -18 -17 -21 -81 -78 -131 -118 -14 -11 -39 -31 -55 -45
-50 -42 -56 -47 -169 -124 -60 -42 -112 -73 -116 -69 -3 3 -6 1 -6 -5 0 -7 -6
-12 -14 -12 -8 0 -16 -3 -18 -7 -5 -12 -108 -65 -108 -56 0 4 -4 3 -8 -3 -10
-15 -73 -47 -79 -40 -3 3 -11 0 -18 -7 -6 -7 -54 -27 -106 -45 -52 -19 -102
-38 -111 -43 -10 -5 -26 -9 -36 -9 -10 0 -22 -3 -25 -7 -4 -3 -17 -8 -29 -9
-28 -4 -63 -12 -63 -14 0 -2 -32 -9 -65 -14 -14 -2 -32 -6 -40 -9 -8 -3 -22
-6 -30 -6 -8 0 -28 -3 -45 -6 -44 -7 -123 -16 -177 -19 -26 -1 -51 -5 -54 -9
-4 -4 -13 -2 -21 4 -7 6 -13 7 -13 3 0 -13 -143 -11 -152 1 -5 6 -8 6 -8 -1 0
-6 -10 -10 -22 -8 -13 1 -23 3 -23 4 0 1 -36 4 -80 6 -44 1 -80 4 -80 5 0 1
-12 3 -28 5 -15 1 -42 5 -60 9 -17 3 -43 7 -57 9 -14 2 -36 7 -50 11 -14 4
-36 8 -50 10 -14 2 -27 4 -30 6 -3 1 -9 3 -15 4 -21 3 -102 27 -160 47 -33 11
-64 21 -70 23 -45 10 -276 119 -380 180 -38 22 -80 41 -92 43 -16 2 -59 -35
-177 -153 -85 -85 -160 -155 -166 -155 -6 0 -9 -4 -5 -9 3 -5 1 -12 -5 -16
-15 -10 -12 -55 4 -55 8 0 16 -4 18 -8 4 -11 94 -72 106 -72 6 0 12 -3 14 -7
4 -10 60 -42 148 -86 36 -17 68 -36 71 -40 3 -5 10 -9 15 -9 5 0 36 -13 70
-28 33 -16 72 -32 87 -35 15 -4 27 -12 27 -17 0 -6 6 -8 14 -5 7 3 17 2 22 -2
5 -4 38 -18 74 -30 36 -13 72 -26 80 -29 8 -3 18 -6 23 -7 4 -2 10 -4 15 -5 4
-1 10 -2 14 -1 4 0 19 -4 33 -9 14 -5 36 -12 48 -15 12 -2 59 -13 105 -24 45
-10 85 -19 87 -20 3 -1 6 -1 8 -2 7 -2 56 -8 85 -10 18 -1 35 -6 38 -11 3 -4
9 -6 13 -3 5 2 28 -2 53 -10 69 -24 629 -17 713 9 33 10 74 19 91 20 16 1 34
5 40 7 5 3 20 5 34 5 14 -1 27 2 30 5 3 4 23 9 45 13 61 9 69 11 83 19 6 5 12
6 12 3 0 -3 12 -1 28 5 15 6 38 13 52 15 48 9 195 59 202 69 4 5 8 7 8 3 0
-10 225 84 295 124 19 11 58 32 151 83 25 14 53 32 61 40 8 8 21 15 29 15 8 0
14 5 14 10 0 6 7 10 15 10 8 0 15 3 15 8 0 4 16 16 35 26 19 11 35 24 35 29 0
6 3 8 6 4 3 -3 14 2 24 11 38 35 70 60 70 55 0 -3 8 3 18 13 9 11 31 30 47 43
90 69 241 214 335 322 30 35 65 73 77 86 12 13 19 23 15 23 -4 0 -2 4 3 8 6 4
28 32 50 62 22 30 42 57 45 60 21 18 142 223 185 313 15 31 32 57 38 57 6 0 7
3 4 6 -4 4 0 19 8 33 23 42 55 122 55 137 0 8 5 14 10 14 6 0 9 3 8 8 -4 13
23 82 32 82 5 0 7 6 4 13 -3 8 5 38 16 68 12 30 21 55 21 57 -1 1 -1 3 0 5 0
1 2 9 4 17 2 8 6 25 9 38 14 54 17 68 22 92 3 14 7 33 10 43 3 10 7 30 9 45 2
15 7 43 10 62 4 19 8 44 10 55 1 11 5 34 8 50 6 30 18 106 22 135 1 8 7 40 14
70 13 55 11 467 -3 535 -3 17 -8 53 -11 81 -3 28 -10 66 -15 84 -5 18 -7 37
-4 41 3 5 0 17 -5 28 -6 11 -13 37 -15 58 -2 21 -6 45 -9 53 -9 28 -38 135
-43 160 -2 14 -7 32 -11 40 -3 8 -7 20 -9 25 -9 37 -50 141 -57 146 -5 3 -8
10 -7 15 1 8 -7 36 -14 54 -2 3 -8 18 -14 33 -7 15 -27 58 -44 95 -18 37 -32
70 -30 75 1 4 -3 7 -8 7 -6 0 -10 5 -10 10 0 6 -8 22 -17 37 -10 14 -18 33
-19 41 -2 8 -7 18 -12 21 -5 3 -17 22 -27 41 -10 19 -29 49 -41 66 -13 17 -24
34 -24 38 0 4 -18 31 -40 60 -22 29 -40 58 -40 65 0 7 -4 9 -10 6 -5 -3 -10 0
-10 7 0 7 -10 24 -22 38 -13 14 -41 48 -63 75 -22 28 -46 55 -55 62 -8 7 -12
13 -9 13 6 0 -255 263 -283 285 -34 27 -54 11 -304 -241z"/>
<path d="M2518 9373 c-2 -10 -4 -166 -3 -348 1 -304 0 -330 -17 -347 -21 -21
-27 -22 -49 -5 -18 14 -31 65 -17 73 4 3 6 9 3 14 -8 12 -8 297 -1 309 4 6 4
11 -1 11 -4 0 -8 35 -8 77 l0 78 -30 -3 c-16 -2 -33 -9 -37 -15 -4 -7 -8 -8
-8 -3 0 5 -7 2 -16 -5 -9 -7 -22 -14 -30 -15 -7 -1 -21 -9 -30 -18 -8 -9 -19
-16 -23 -16 -7 0 -22 -11 -68 -50 -7 -5 -15 -10 -18 -10 -3 0 -16 -11 -29 -25
-13 -14 -29 -25 -36 -25 -7 0 -10 -3 -7 -6 4 -4 -10 -20 -30 -35 -20 -16 -33
-29 -29 -29 3 0 -2 -8 -11 -18 -49 -51 -143 -189 -143 -209 0 -6 -5 -13 -10
-15 -6 -2 -12 -13 -13 -26 0 -12 -5 -22 -9 -22 -4 0 -8 -8 -8 -18 0 -10 -3
-22 -7 -26 -5 -4 -8 -11 -9 -14 -1 -7 -7 -25 -23 -67 -5 -11 -7 -28 -5 -37 1
-10 -1 -18 -5 -18 -5 0 -8 -15 -9 -32 0 -18 -4 -34 -9 -35 -4 -2 -7 -30 -7
-63 1 -33 -2 -63 -7 -66 -5 -3 -6 -11 -2 -17 12 -19 12 -37 2 -37 -6 0 -7 -6
-2 -12 15 -26 13 -48 -5 -48 -10 0 -22 -4 -28 -10 -5 -5 -23 -11 -39 -14 -17
-2 -43 -9 -60 -16 -16 -7 -41 -14 -54 -16 -22 -3 -42 -23 -47 -46 -1 -5 -3
-11 -4 -15 -5 -17 -5 -79 0 -88 2 -5 5 -12 5 -15 1 -23 146 -140 173 -140 6 0
12 -4 14 -8 2 -4 50 -27 108 -51 58 -24 113 -47 122 -52 10 -5 26 -9 37 -9 10
0 34 -7 54 -15 19 -8 37 -11 40 -8 4 3 13 0 22 -7 9 -7 18 -10 22 -7 3 4 15 1
26 -5 11 -6 39 -13 61 -15 73 -9 81 -10 96 -16 29 -12 140 -15 133 -3 -4 6 6
3 21 -8 16 -10 25 -13 22 -7 -9 14 5 14 38 1 19 -7 26 -6 26 3 0 6 5 4 11 -6
6 -9 15 -14 21 -11 6 4 14 0 19 -7 5 -8 9 -9 9 -4 0 6 22 9 52 7 80 -4 88 -6
88 -15 0 -5 6 -5 13 0 20 16 59 23 77 13 21 -11 180 -18 180 -8 0 7 22 9 85 8
61 -1 118 4 130 11 6 3 33 5 60 5 28 -1 52 2 55 5 3 4 23 8 45 10 22 1 46 8
54 13 12 9 13 8 7 -2 -7 -11 -4 -12 12 -3 12 6 34 13 49 15 41 6 184 46 205
57 10 5 18 7 18 4 0 -3 13 1 30 10 16 8 32 16 35 16 5 0 90 44 135 70 41 23
113 81 146 117 29 32 31 38 28 105 -2 61 -5 73 -26 89 -12 10 -30 17 -38 16
-8 -1 -31 5 -51 14 -39 17 -99 33 -111 30 -10 -3 -10 -3 -13 93 -3 78 -11 157
-21 202 -2 13 -5 26 -5 30 -1 5 -5 15 -10 24 -4 9 -11 31 -14 48 -3 18 -10 40
-15 49 -10 17 -26 58 -30 77 -1 6 -5 15 -10 20 -4 6 -20 33 -35 60 -53 96
-194 258 -265 303 -14 9 -29 22 -33 29 -4 7 -15 13 -22 13 -8 0 -15 5 -15 10
0 6 -6 10 -13 10 -8 0 -22 9 -32 20 -10 11 -20 18 -23 16 -2 -3 -20 4 -39 15
-19 11 -39 16 -45 13 -7 -4 -8 -2 -4 4 5 8 0 12 -12 12 -23 0 -34 -21 -22 -40
5 -8 4 -22 -1 -32 -7 -13 -6 -18 2 -18 8 0 9 -4 0 -13 -8 -10 -7 -17 1 -25 7
-7 8 -12 2 -12 -5 0 -10 -9 -10 -20 0 -11 4 -20 9 -20 5 0 5 -6 -2 -13 -8 -10
-7 -17 1 -25 9 -9 9 -12 0 -12 -9 0 -10 -5 -3 -18 6 -11 6 -24 0 -35 -7 -12
-6 -17 2 -17 8 0 9 -4 0 -13 -8 -10 -7 -17 1 -25 8 -8 8 -12 1 -12 -6 0 -8
-12 -6 -27 8 -57 8 -78 0 -95 -5 -11 -4 -18 3 -18 6 0 8 -5 3 -12 -4 -7 -8
-17 -9 -23 0 -5 -2 -15 -2 -22 -1 -7 -12 -17 -23 -24 -18 -9 -25 -7 -43 12
-21 23 -21 31 -21 364 l0 340 -291 3 c-272 2 -292 1 -296 -15z m-343 -1135 c6
-3 28 -9 50 -13 46 -8 70 -13 70 -15 0 -1 7 -3 15 -5 8 -1 41 -10 72 -18 31
-8 59 -12 62 -9 3 3 6 1 6 -5 0 -10 11 -12 64 -14 16 0 38 -4 47 -10 11 -6 20
-5 24 1 4 6 13 7 23 1 19 -10 392 -7 477 3 28 4 58 7 67 7 10 0 20 5 23 10 4
5 11 7 16 3 5 -3 15 -1 22 4 7 5 21 8 31 6 10 -1 29 4 42 13 13 8 24 12 24 8
0 -4 8 -1 17 6 13 11 15 11 9 1 -6 -11 -4 -11 10 -3 16 8 45 16 125 36 25 5
59 -23 59 -49 0 -31 -36 -47 -132 -60 -10 -1 -21 -5 -24 -9 -4 -4 -20 -7 -36
-7 -15 0 -28 -4 -28 -9 0 -5 -8 -8 -17 -6 -10 1 -24 -2 -31 -8 -7 -5 -15 -7
-18 -4 -3 3 -16 2 -28 -3 -34 -12 -94 -22 -159 -25 -32 -1 -60 -5 -63 -7 -3
-3 -25 -4 -50 -1 -26 2 -43 0 -40 -5 5 -9 -42 -8 -51 1 -2 3 -17 2 -32 -3 -15
-4 -35 -3 -44 2 -11 6 -17 5 -17 -2 0 -7 -6 -8 -17 -2 -10 5 -35 8 -55 7 -21
-2 -36 0 -34 4 2 3 -32 6 -75 6 -43 0 -79 3 -79 6 0 4 -16 7 -35 7 -20 0 -41
5 -49 11 -7 6 -16 8 -19 4 -4 -3 -13 -1 -20 5 -8 7 -17 9 -20 6 -3 -4 -14 -3
-24 1 -10 5 -27 10 -38 12 -11 2 -27 6 -35 10 -22 9 -40 13 -80 17 -67 6 -101
39 -78 76 16 25 49 33 73 18z"/>
<path d="M12995 9231 c-30 -13 -65 -49 -77 -79 -8 -19 -11 -231 -12 -676 -1
-606 0 -651 17 -690 23 -53 58 -78 117 -84 77 -7 141 39 158 113 5 23 9 158
10 300 0 143 1 263 1 268 1 4 146 6 324 5 l322 -3 1 -281 c1 -255 3 -285 20
-320 51 -104 196 -113 256 -15 l23 36 3 639 c3 714 2 723 -60 767 -47 34 -123
37 -168 7 -67 -45 -72 -70 -73 -339 l-1 -239 -323 0 c-251 0 -323 3 -324 13 0
6 -1 116 -2 242 -2 251 -8 278 -64 319 -29 22 -116 31 -148 17z"/>
<path d="M15800 9233 c-28 -10 -59 -46 -71 -82 -14 -41 -20 -1264 -6 -1341 15
-92 113 -139 190 -91 38 23 55 54 64 118 l6 44 56 -56 c93 -93 196 -132 331
-122 211 14 357 156 416 407 14 58 13 266 -1 335 -18 86 -72 196 -122 251
-117 128 -350 172 -511 97 -43 -20 -161 -112 -164 -127 -1 -6 -4 102 -7 239
-5 223 -8 253 -25 278 -32 47 -102 70 -156 50z m569 -637 c62 -32 120 -111
135 -181 3 -16 9 -41 12 -55 15 -71 0 -212 -30 -284 -50 -119 -184 -182 -302
-142 -93 32 -153 102 -178 210 -13 56 -14 178 -1 236 33 149 139 242 269 236
34 -1 76 -11 95 -20z"/>
<path d="M6281 9087 c-13 -6 -34 -25 -45 -40 -35 -48 -26 -110 84 -547 56
-223 104 -416 106 -430 12 -59 56 -218 72 -255 31 -73 76 -105 148 -105 48 0
95 22 126 59 32 37 46 81 179 571 56 206 104 381 108 387 4 7 30 -78 59 -190
30 -111 57 -213 62 -227 5 -14 29 -104 55 -200 66 -251 91 -323 123 -353 73
-70 194 -60 248 20 25 38 46 111 165 598 50 204 93 377 95 385 7 30 26 105 30
125 13 56 14 122 2 145 -19 36 -76 70 -115 70 -81 0 -124 -58 -149 -197 -3
-15 -14 -64 -24 -108 -10 -44 -30 -132 -44 -195 -14 -63 -39 -176 -57 -250
-17 -74 -32 -142 -34 -150 -2 -8 -4 -24 -4 -34 -1 -14 -4 -17 -12 -9 -6 6 -12
17 -13 24 -1 8 -8 34 -15 59 -7 25 -50 187 -97 360 -47 173 -94 341 -106 373
-34 96 -101 137 -200 124 -80 -11 -124 -64 -158 -189 -13 -46 -64 -238 -115
-428 -74 -275 -94 -339 -100 -315 -4 17 -11 44 -16 60 -4 17 -10 41 -13 55 -2
14 -27 129 -56 255 -65 292 -91 406 -95 425 -9 42 -40 103 -63 120 -28 23 -94
27 -131 7z"/>
<path d="M10007 9082 c-16 -10 -34 -36 -44 -62 -16 -40 -17 -101 -17 -630 0
-531 2 -588 17 -617 43 -82 163 -82 212 0 16 27 20 53 21 161 l2 128 66 63
c45 43 69 59 75 51 14 -18 111 -177 111 -182 0 -3 14 -25 30 -49 17 -24 30
-46 30 -49 0 -9 97 -151 113 -164 27 -23 90 -26 126 -7 34 17 61 66 61 108 0
33 -12 54 -169 302 l-140 220 104 100 c63 60 111 114 119 135 37 96 -69 177
-159 122 -16 -10 -104 -96 -195 -190 -90 -94 -166 -169 -169 -167 -2 3 -5 150
-5 327 -1 287 -3 327 -19 355 -32 59 -113 81 -170 45z"/>
<path d="M14522 8810 c-64 -39 -67 -58 -66 -426 0 -181 4 -354 8 -384 19 -132
105 -234 230 -272 153 -47 323 -1 434 116 29 30 52 49 53 43 2 -53 11 -92 25
-116 50 -85 178 -80 221 9 15 31 17 83 17 479 1 496 0 506 -64 549 -66 45
-167 16 -197 -55 -11 -28 -15 -97 -18 -322 -4 -327 -10 -363 -72 -423 -53 -50
-99 -71 -163 -74 -94 -4 -154 42 -182 140 -7 26 -12 151 -14 344 -2 274 -4
307 -22 340 -34 67 -124 92 -190 52z"/>
<path d="M8309 8712 c-229 -64 -353 -248 -345 -512 7 -245 131 -413 345 -471
85 -23 253 -19 326 7 200 71 312 231 319 454 2 56 -2 124 -11 165 -38 183
-171 320 -352 361 -69 16 -217 14 -282 -4z m247 -194 c94 -45 141 -135 148
-283 4 -63 -16 -161 -43 -213 -42 -82 -135 -130 -231 -119 -131 16 -208 119
-215 292 -10 215 87 348 252 343 28 -1 68 -10 89 -20z"/>
<path d="M9210 8714 c-37 -26 -48 -44 -56 -88 -3 -22 -6 -214 -6 -427 0 -335
2 -391 16 -421 31 -65 110 -87 173 -48 52 31 60 64 62 265 3 238 6 284 26 367
33 132 98 168 237 131 77 -20 78 -20 117 -1 58 29 74 96 37 153 -23 34 -111
75 -178 82 -98 10 -151 -16 -217 -107 -17 -24 -31 -37 -31 -29 0 30 -21 87
-40 109 -27 31 -105 39 -140 14z"/>
<path d="M11230 8712 c-232 -62 -352 -243 -345 -518 3 -111 33 -216 81 -285
55 -80 153 -151 239 -174 17 -5 37 -10 45 -12 47 -13 231 -12 284 2 124 32
223 101 265 183 38 74 25 124 -38 143 -45 13 -67 4 -133 -56 -123 -114 -245
-143 -357 -85 -67 34 -131 145 -131 226 l0 22 303 4 c238 3 308 7 330 19 107
56 67 303 -70 431 -45 42 -125 84 -189 100 -82 21 -206 21 -284 0z m253 -195
c51 -30 94 -104 104 -176 l6 -41 -228 0 -227 0 7 38 c10 54 43 127 69 151 70
66 184 77 269 28z"/>
<path d="M12102 8717 c-31 -18 -49 -46 -58 -93 -4 -21 -7 -212 -7 -424 0 -344
2 -390 17 -422 31 -64 111 -86 174 -48 54 33 60 62 62 280 1 215 5 267 26 354
17 71 46 114 90 132 44 18 74 17 158 -5 81 -21 94 -19 132 20 33 34 38 92 11
133 -39 60 -186 101 -272 77 -46 -13 -77 -38 -121 -99 l-32 -43 -6 37 c-11 55
-27 84 -57 100 -34 17 -86 18 -117 1z"/>
</g>
</svg>
